<?xml version="1.0" standalone="no"?>
<!DOCTYPE svg PUBLIC "-//W3C//DTD SVG 20010904//EN"
 "http://www.w3.org/TR/2001/REC-SVG-20010904/DTD/svg10.dtd">
<svg version="1.0" xmlns="http://www.w3.org/2000/svg"
 width="305.000000pt" height="73.000000pt" viewBox="0 0 305.000000 73.000000"
 preserveAspectRatio="xMidYMid meet">

<g transform="translate(0.000000,73.000000) scale(0.100000,-0.100000)"
fill="#000000" stroke="none">
<path d="M91 713 c-19 -10 -44 -31 -55 -46 -20 -27 -21 -43 -24 -343 -2 -277
-1 -314 13 -314 13 0 15 31 15 240 l0 240 90 0 c73 0 90 3 90 15 0 12 -17 15
-90 15 l-90 0 0 48 c0 56 28 108 66 122 14 6 48 10 75 10 36 0 49 4 47 13 -7
20 -98 20 -137 0z"/>
<path d="M317 684 c-4 -4 -7 -16 -7 -26 0 -14 6 -19 23 -16 14 2 22 10 22 23
0 20 -25 32 -38 19z"/>
<path d="M1047 684 c-4 -4 -7 -16 -7 -26 0 -14 6 -19 23 -16 14 2 22 10 22 23
0 20 -25 32 -38 19z"/>
<path d="M575 516 c-28 -7 -56 -16 -63 -20 -9 -5 -12 -70 -12 -247 0 -206 2
-239 15 -239 13 0 15 32 15 230 l0 230 28 11 c15 6 59 14 98 16 95 7 154 -17
183 -76 19 -36 21 -58 21 -226 0 -158 2 -185 15 -185 13 0 15 28 15 188 0 175
-2 191 -22 232 -13 24 -35 52 -49 63 -50 36 -150 46 -244 23z"/>
<path d="M1296 515 c-64 -22 -91 -57 -91 -114 0 -78 45 -113 185 -146 137 -32
178 -82 135 -165 -33 -65 -174 -79 -273 -28 -47 24 -62 26 -62 7 0 -4 26 -20
58 -36 48 -24 69 -28 137 -28 66 0 87 4 118 24 63 39 84 108 52 171 -20 38
-70 63 -168 85 -88 19 -137 48 -151 88 -35 98 104 159 245 107 33 -12 63 -19
67 -16 20 21 -99 66 -172 66 -23 -1 -59 -7 -80 -15z"/>
<path d="M1797 516 c-94 -35 -117 -84 -117 -250 0 -135 11 -177 58 -219 28
-26 89 -46 139 -47 70 0 192 54 170 76 -3 4 -28 -4 -54 -17 -70 -34 -156 -37
-207 -7 -63 37 -76 73 -76 211 0 135 11 172 61 208 50 36 148 39 211 6 35 -18
48 -21 52 -11 8 20 -77 55 -142 60 -35 3 -72 -1 -95 -10z"/>
<path d="M2766 516 c-64 -24 -91 -58 -91 -115 0 -78 46 -114 184 -145 122 -28
151 -51 151 -120 0 -44 -46 -92 -96 -102 -62 -11 -150 2 -198 30 -40 23 -56
25 -56 5 0 -4 26 -20 58 -36 72 -35 183 -39 246 -9 68 34 95 111 61 176 -19
37 -55 56 -157 81 -95 24 -131 40 -152 71 -34 49 -14 103 51 137 31 16 131 13
178 -5 66 -25 75 -27 75 -15 0 20 -90 53 -154 57 -38 3 -76 -1 -100 -10z"/>
<path d="M320 265 c0 -220 2 -255 15 -255 13 0 15 35 15 255 0 220 -2 255 -15
255 -13 0 -15 -35 -15 -255z"/>
<path d="M1050 265 c0 -220 2 -255 15 -255 13 0 15 35 15 255 0 220 -2 255
-15 255 -13 0 -15 -35 -15 -255z"/>
<path d="M2152 322 c3 -196 3 -199 30 -239 39 -59 85 -78 188 -77 48 1 102 7
125 16 l40 15 3 242 c2 210 0 241 -13 241 -13 0 -15 -31 -15 -230 l0 -230 -27
-12 c-16 -7 -67 -12 -115 -12 -94 -1 -119 9 -162 68 -19 25 -21 44 -24 222 -3
164 -6 194 -19 194 -12 0 -14 -27 -11 -198z"/>
</g>
</svg>
